<svg width="30" height="33" viewBox="0 0 30 33" fill="none" xmlns="http://www.w3.org/2000/svg">
<path d="M28.5 22V9.99998C28.4995 9.47389 28.3606 8.95719 28.0973 8.50172C27.834 8.04625 27.4556 7.66802 27 7.40498L16.5 1.40498C16.0439 1.14167 15.5266 1.00305 15 1.00305C14.4734 1.00305 13.9561 1.14167 13.5 1.40498L3 7.40498C2.54439 7.66802 2.16597 8.04625 1.90269 8.50172C1.63941 8.95719 1.50054 9.47389 1.5 9.99998V22C1.50054 22.5261 1.63941 23.0428 1.90269 23.4982C2.16597 23.9537 2.54439 24.3319 3 24.595L13.5 30.595C13.9561 30.8583 14.4734 30.9969 15 30.9969C15.5266 30.9969 16.0439 30.8583 16.5 30.595L27 24.595C27.4556 24.3319 27.834 23.9537 28.0973 23.4982C28.3606 23.0428 28.4995 22.5261 28.5 22Z" stroke="#FBFBFB" stroke-width="1.8" stroke-linecap="round" stroke-linejoin="round"/>
<path d="M1.90527 8.44L15.0003 16.015L28.0953 8.44" stroke="#FBFBFB" stroke-width="1.8" stroke-linecap="round" stroke-linejoin="round"/>
<path d="M15 31.12V16" stroke="#FBFBFB" stroke-width="1.8" stroke-linecap="round" stroke-linejoin="round"/>
</svg>
