<svg width="34" height="22" viewBox="0 0 34 22" fill="none" xmlns="http://www.w3.org/2000/svg">
<path d="M13.1171 12.8092C11.4192 14.7646 11.5027 17.7986 13.298 19.6705C14.3 20.7212 15.6431 21.2431 16.9791 21.2431C18.2874 21.2431 19.5886 20.7421 20.5837 19.747C21.036 19.2947 21.3909 18.7728 21.6345 18.2231L28.2104 5.47482C28.3844 5.11297 28.0086 4.73721 27.6467 4.91117L14.8985 11.4871C14.2374 11.7794 13.632 12.2247 13.1171 12.8092ZM15.4413 14.6046C15.8657 14.1801 16.4224 13.9644 16.9791 13.9644C17.5358 13.9644 18.0925 14.1801 18.5239 14.6046C19.3729 15.4535 19.3729 16.8383 18.5239 17.6873C18.0995 18.1117 17.5428 18.3275 16.9791 18.3275C16.4224 18.3275 15.8657 18.1117 15.4413 17.6873C14.5853 16.8314 14.5853 15.4535 15.4413 14.6046ZM30.632 17.7569C30.632 15.3492 29.9988 12.9832 28.7949 10.9165C28.3287 10.1093 28.6001 9.07941 29.4073 8.61318C30.2145 8.14695 31.2444 8.41834 31.7106 9.22554C33.2067 11.8072 34 14.7577 34 17.7569C34 18.6893 33.2485 19.4409 32.316 19.4409C31.3905 19.4409 30.632 18.6893 30.632 17.7569ZM0 17.7569C0 8.38354 7.62669 0.756855 17 0.756855C19.1781 0.756855 21.3005 1.16046 23.3045 1.96766C24.1674 2.31559 24.5849 3.28981 24.244 4.15268C23.896 5.01555 22.9218 5.43307 22.0589 5.0921C20.4515 4.4519 18.7466 4.12485 17 4.12485C9.48465 4.12485 3.36799 10.2415 3.36799 17.7569C3.36799 18.6893 2.61646 19.4409 1.684 19.4409C0.751535 19.4409 0 18.6893 0 17.7569Z" fill="#CCCCCC"/>
</svg>
