<svg width="43" height="43" viewBox="0 0 43 43" fill="none" xmlns="http://www.w3.org/2000/svg">
<path fill-rule="evenodd" clip-rule="evenodd" d="M12.7977 2.43064C12.2879 2.6231 11.7807 3.08005 11.6037 3.50639C11.5242 3.69761 11.124 5.32031 10.7144 7.11229L9.96936 10.3707L11.6743 10.2559C12.612 10.1929 13.9226 10.0833 14.5867 10.0123L15.7943 9.88319L18.4614 7.61399C19.9284 6.36592 21.1255 5.3207 21.1217 5.2913C21.1178 5.26189 19.693 4.59956 17.9555 3.81961C14.3101 2.18308 13.81 2.0484 12.7977 2.43064ZM31.8287 0.522959C31.5897 0.620395 29.409 1.8659 26.9827 3.29058L22.5713 5.88095L19.5254 8.41337L16.4795 10.9459L13.2253 11.297L9.9711 11.6483L5.96486 12.655C2.79711 13.451 1.84276 13.7281 1.40507 13.9785C0.70105 14.3813 0.432703 14.8666 0.529109 15.5622C0.607177 16.1246 0.686031 16.2453 1.99913 17.8118C2.51036 18.4217 2.93462 18.9672 2.94204 19.0243C2.94945 19.0813 2.83319 19.17 2.68373 19.2216C2.27945 19.3612 1.68913 20.0066 1.51641 20.4979C1.37972 20.887 1.40679 21.2588 1.78489 24.1839C2.01621 25.9731 2.24371 27.433 2.29043 27.4281C2.33714 27.4231 4.48145 25.6013 7.05565 23.3795C9.62976 21.1578 11.8137 19.2894 11.9087 19.2275C12.0228 19.1532 14.8439 19.1898 20.2178 19.3352C24.6928 19.4562 28.4464 19.5713 28.5592 19.5907C29.0643 19.6779 29.2007 20.4304 28.7499 20.6434C28.5897 20.7191 25.8734 20.6848 20.5364 20.5392C14.2553 20.3679 12.5267 20.3513 12.3941 20.4613C12.3015 20.538 10.0238 22.5636 7.3326 24.9627L2.43938 29.3248L2.9003 32.6042L3.36111 35.8837L3.80728 36.53C4.29703 37.2395 5.07104 37.8966 5.86462 38.2766C6.20992 38.442 8.59872 38.9489 13.1624 39.8253C16.8939 40.5419 21.8441 41.4927 24.1629 41.9382C28.9158 42.8513 29.2512 42.872 30.1738 42.3081C30.5446 42.0813 30.7775 41.832 30.9721 41.4534L31.2469 40.9189L31.0431 39.0623L30.8393 37.2057L36.1608 34.4554C41.9679 31.4542 42.2377 31.2771 42.388 30.369C42.5093 29.6361 42.2164 29.1598 41.1554 28.3633C40.6464 27.9812 40.0531 27.6099 39.837 27.5381C39.6208 27.4663 36.7208 27.2064 33.3924 26.9605L27.3408 26.5134L20.8345 30.4307C17.2561 32.5852 14.232 34.3582 14.1144 34.3707C13.6514 34.4202 13.2236 33.7124 13.5379 33.4165C13.6081 33.3506 16.6681 31.4916 20.3381 29.2855L27.0108 25.2744L32.8351 25.7205C36.0384 25.966 38.6822 26.1405 38.71 26.1084C38.8288 25.9718 38.8912 18.1917 38.7992 14.9951L38.6989 11.5135L37.0262 6.6227C36.1061 3.9327 35.2497 1.58191 35.123 1.3986C34.7675 0.884372 34.0814 0.465005 33.4274 0.362157C32.732 0.252821 32.4121 0.285046 31.8287 0.522959ZM40.3008 15.9603C40.3179 16.0915 40.2784 19.999 40.2477 21.2334C40.2079 22.8242 40.185 22.7542 40.7249 22.6965C41.6411 22.5986 42.121 22.0388 42.0114 21.1959C41.9805 20.958 41.8224 20.3775 41.6601 19.9059C41.3713 19.0661 41.3687 19.0344 41.5322 18.3759C41.7622 17.4505 41.5981 16.7007 41.0804 16.3106C40.6799 16.0086 40.284 15.8308 40.3008 15.9603Z" fill="#D1D1D1"/>
</svg>
