<svg width="401" height="463" viewBox="0 0 401 463" fill="none" xmlns="http://www.w3.org/2000/svg">
<path d="M201.452 274.058L201.452 274.061C201.35 274.749 200.904 275 200.5 275C200.096 275 199.649 274.749 199.548 274.061L199.548 274.058C197.454 260.116 194.831 251.013 189.529 244.82C184.2 238.595 176.31 235.473 164.16 233.073L164.16 233.073L164.15 233.071C163.432 232.937 163 232.319 163 231.52C163 230.722 163.434 230.08 164.166 229.926C176.312 227.526 184.201 224.404 189.529 218.18C194.831 211.987 197.454 202.884 199.548 188.942L199.548 188.939C199.649 188.251 200.096 188 200.5 188C200.904 188 201.35 188.251 201.452 188.939L201.452 188.942C203.546 202.884 206.169 211.987 211.471 218.18C216.8 224.405 224.69 227.527 236.84 229.927L236.84 229.927L236.85 229.929C237.568 230.063 238 230.681 238 231.48C238 232.278 237.566 232.92 236.835 233.074C224.688 235.474 216.799 238.596 211.471 244.82C206.169 251.013 203.546 260.116 201.452 274.058Z" stroke="#FBFBFB" stroke-width="2"/>
<path d="M301.485 238.04C268.143 244.626 247.071 253.103 232.917 269.634C218.776 286.149 211.613 310.622 205.851 348.99L205.85 348.991C205.402 352.028 203.19 353.5 201 353.5C198.81 353.5 196.598 352.028 196.15 348.991L196.149 348.99C190.387 310.622 183.224 286.149 169.083 269.634C154.929 253.102 133.855 244.625 100.511 238.039L100.506 238.038C97.1929 237.421 95.5 234.541 95.5 231.556C95.5 228.571 97.1941 225.649 100.514 224.96C133.856 218.374 154.929 209.897 169.083 193.366C183.224 176.851 190.387 152.378 196.149 114.01L196.15 114.009C196.598 110.972 198.81 109.5 201 109.5C203.19 109.5 205.402 110.972 205.85 114.009L205.851 114.01C211.613 152.378 218.776 176.851 232.917 193.366C247.071 209.898 268.145 218.375 301.489 224.961L301.494 224.962C304.807 225.579 306.5 228.459 306.5 231.444C306.5 234.429 304.805 237.351 301.485 238.04ZM301.485 238.04C301.486 238.04 301.488 238.04 301.489 238.039L301.585 238.53L301.484 238.04C301.485 238.04 301.485 238.04 301.485 238.04Z" stroke="#FBFBFB" stroke-opacity="0.8"/>
<path d="M390.709 244.54C327.672 256.979 288.012 272.963 261.399 304.017C234.792 335.063 221.261 381.131 210.363 453.635L210.363 453.636C209.463 459.727 204.976 462.75 200.5 462.75C196.024 462.75 191.537 459.727 190.637 453.636L190.637 453.635C179.738 381.131 166.208 335.063 139.601 304.017C112.987 272.963 73.3273 256.979 10.2901 244.54L10.2874 244.539C3.60775 243.295 0.25 237.49 0.25 231.606C0.25 225.722 3.60848 219.844 10.2914 218.46C73.3278 206.02 112.988 190.037 139.601 158.983C166.208 127.937 179.738 81.8692 190.637 9.365L190.637 9.36439C191.537 3.27279 196.024 0.25 200.5 0.25C204.976 0.25 209.463 3.2728 210.363 9.36439L210.363 9.365C221.261 81.8692 234.792 127.937 261.399 158.983C288.013 190.037 327.673 206.021 390.71 218.46L390.713 218.461C397.392 219.705 400.75 225.51 400.75 231.394C400.75 237.278 397.392 243.156 390.709 244.54ZM390.709 244.54C390.709 244.54 390.71 244.54 390.71 244.54L390.758 244.785L390.708 244.54C390.708 244.54 390.708 244.54 390.709 244.54Z" stroke="#FBFBFB" stroke-opacity="0.5" stroke-width="0.5"/>
</svg>
