<svg width="307" height="209" viewBox="0 0 307 209" fill="none" xmlns="http://www.w3.org/2000/svg">
<path d="M230.386 92.837C179.197 102.221 166.08 116.938 157.229 171.645C156.482 176.338 149.764 176.338 149.017 171.645C140.166 116.938 127.049 102.221 75.8602 92.837C70.3148 91.8772 70.3148 83.8791 75.8602 82.8126C127.049 73.4281 140.166 58.7116 149.017 4.00423C149.764 -0.688015 156.482 -0.688015 157.229 4.00423C166.08 58.7116 179.197 73.4281 230.386 82.8126C235.931 83.7724 235.931 91.7706 230.386 92.837Z" fill="#FBFBFB"/>
<path d="M38.7487 140.079C23.0722 154.583 10.4883 171.539 1.31707 190.308C-2.842 198.946 3.34328 208.97 12.9411 208.97C17.9533 208.97 22.4323 206.091 24.5652 201.612C36.8291 176.764 56.0248 155.969 79.5928 141.679C83.5386 139.333 85.8848 135.174 85.8848 130.588C85.8848 120.457 74.9006 114.165 66.3691 119.391C56.558 125.256 47.2801 132.188 38.642 140.186L38.7487 140.079Z" fill="#FBFBFB"/>
<path d="M267.497 140.079C258.752 131.975 249.261 124.936 239.13 118.964C230.492 113.845 219.508 120.031 219.508 130.055C219.508 134.641 221.961 138.906 225.906 141.252C249.794 155.542 269.31 176.444 281.574 201.612C283.707 206.091 288.186 208.97 293.198 208.97C302.796 208.97 309.088 198.946 304.822 190.308C295.651 171.645 283.067 154.583 267.39 140.079H267.497Z" fill="#FBFBFB"/>
</svg>
