<svg width="307" height="209" viewBox="0 0 307 209" fill="none" xmlns="http://www.w3.org/2000/svg">
<path d="M230.386 92.3519C179.197 101.736 166.08 116.453 157.229 171.16C156.482 175.853 149.764 175.853 149.017 171.16C140.166 116.453 127.049 101.736 75.8602 92.3519C70.3148 91.3922 70.3148 83.394 75.8602 82.3276C127.049 72.9431 140.166 58.2265 149.017 3.51918C149.764 -1.17306 156.482 -1.17306 157.229 3.51918C166.08 58.2265 179.197 72.9431 230.386 82.3276C235.931 83.2874 235.931 91.2855 230.386 92.3519V92.3519Z" fill="#1A1A1A"/>
<path d="M38.7487 139.594C23.0722 154.098 10.4883 171.054 1.31707 189.823C-2.842 198.461 3.34328 208.485 12.9411 208.485C17.9533 208.485 22.4323 205.606 24.5652 201.127C36.8291 176.279 56.0248 155.484 79.5928 141.194C83.5386 138.848 85.8848 134.689 85.8848 130.103C85.8848 119.972 74.9006 113.68 66.3691 118.906C56.558 124.771 47.2801 131.703 38.642 139.701L38.7487 139.594Z" fill="#1A1A1A"/>
<path d="M267.497 139.594C258.752 131.49 249.261 124.451 239.13 118.479C230.492 113.36 219.508 119.546 219.508 129.57C219.508 134.156 221.961 138.421 225.906 140.767C249.794 155.057 269.31 175.959 281.574 201.127C283.707 205.606 288.186 208.485 293.198 208.485C302.796 208.485 309.088 198.461 304.822 189.823C295.651 171.16 283.067 154.098 267.39 139.594H267.497Z" fill="#1A1A1A"/>
</svg>
