<svg width="1241" height="257" viewBox="0 0 1241 257" fill="none" xmlns="http://www.w3.org/2000/svg">
<path d="M407.199 240.371C392.802 230.027 384.057 215.417 380.965 196.648L423.515 190.036C425.541 199.421 430.447 206.672 437.912 211.898C445.484 217.123 454.975 219.789 466.386 219.789C476.303 219.789 483.982 217.763 489.527 213.817C495.073 209.871 497.845 204.433 497.845 197.501C497.845 193.022 496.779 189.503 494.646 187.157C492.513 184.704 488.247 182.358 481.956 180.012C475.664 177.666 465.106 174.466 450.283 170.627C434.5 166.468 422.022 161.989 412.851 157.19C403.68 152.391 397.068 146.739 393.015 140.234C388.963 133.729 386.937 125.731 386.937 116.24C386.937 104.722 389.923 94.5915 396.001 85.9535C402.08 77.3155 410.612 70.597 421.809 65.9048C432.9 61.2125 445.804 58.7598 460.414 58.7598C475.024 58.7598 487.714 60.9992 499.018 65.4782C510.323 69.9572 519.494 76.4623 526.426 84.7804C533.357 93.0985 537.623 102.91 539.116 113.894L496.566 121.465C495.393 113.467 491.767 107.175 485.581 102.59C479.396 98.004 471.291 95.4446 461.054 94.8048C451.242 94.3782 443.351 95.8712 437.379 99.3904C431.407 102.91 428.421 107.815 428.421 114C428.421 117.839 429.701 120.932 432.153 123.385C434.606 125.838 439.405 128.29 446.443 130.743C453.482 133.196 464.466 136.395 479.503 140.128C494.646 144.073 506.59 148.446 515.441 153.245C524.293 158.043 530.691 163.909 534.637 170.627C538.583 177.346 540.609 185.664 540.609 195.475C540.609 207.952 537.516 218.723 531.331 227.681C525.146 236.745 516.294 243.677 504.67 248.582C493.046 253.488 479.289 255.834 463.4 255.834C440.365 255.834 421.596 250.609 407.199 240.264V240.371Z" fill="#1A1A1A"/>
<path d="M587.958 243.144C574.947 234.506 564.923 222.775 557.991 207.845C550.953 192.915 547.434 176.066 547.434 157.403C547.434 138.741 550.953 121.572 558.204 106.642C565.35 91.712 575.481 79.9814 588.598 71.5567C601.715 63.132 616.965 58.8663 634.241 58.8663C651.517 58.8663 667.727 63.6652 680.737 73.263V1.81287H722.754V250.929H685.856V237.065C671.886 249.755 654.183 256.047 632.535 256.047C615.685 256.047 600.755 251.782 587.851 243.144H587.958ZM596.809 188.97C600.328 198.247 605.661 205.499 612.699 210.724C619.844 216.057 628.589 218.723 639.04 218.723C655.036 218.723 666.873 213.284 674.552 202.406C682.123 191.529 685.963 176.599 685.963 157.51C685.963 138.421 682.23 123.491 674.765 112.614C667.3 101.736 655.889 96.2976 640.533 96.2976C629.655 96.2976 620.59 98.9637 613.339 104.296C605.98 109.628 600.542 116.986 597.022 126.157C593.503 135.329 591.69 145.78 591.69 157.51C591.69 169.241 593.503 179.798 597.022 188.97H596.809Z" fill="#1A1A1A"/>
<path d="M802.418 0H827.799V28.58H802.418V0V0ZM802.418 63.9852H827.799V250.822H802.418V63.9852V63.9852Z" fill="#1A1A1A"/>
<path d="M980.723 103.016C971.978 90.0059 958.328 83.6073 939.772 83.6073C921.216 83.6073 908.312 89.5793 898.821 101.417C889.223 113.254 884.424 129.89 884.424 151.218V250.822H858.83V63.9852H881.865V89.8992C888.797 79.8749 897.648 72.3033 908.312 67.0778C918.977 61.8524 931.134 59.293 944.678 59.293C962.274 59.293 976.777 63.5587 987.868 72.09C999.065 80.6214 1007.17 91.6055 1012.08 105.042C1016.98 118.479 1019.54 132.769 1019.54 148.019V250.715H993.946V155.377C993.946 133.303 989.574 115.813 980.829 102.91L980.723 103.016Z" fill="#1A1A1A"/>
<path d="M1072.65 243.57C1059.53 235.252 1049.62 223.628 1042.68 208.805C1035.75 193.982 1032.23 176.812 1032.02 157.404C1032.23 137.675 1035.86 120.399 1042.79 105.576C1049.72 90.7524 1059.75 79.235 1072.86 71.0236C1085.98 62.8122 1101.76 58.7598 1120.11 58.7598C1132.58 58.7598 1144.1 60.786 1154.66 64.945C1165.22 69.104 1174.28 75.076 1181.85 82.8608C1189.32 90.6457 1194.86 99.8169 1198.28 110.481L1173.43 118.479C1169.06 107.388 1162.12 98.7505 1152.53 92.5653C1143.03 86.38 1132.16 83.1808 1119.89 83.1808C1099.95 83.1808 1084.91 89.8992 1074.68 103.229C1064.44 116.56 1059.21 134.689 1059 157.404C1059.21 180.332 1064.55 198.461 1074.89 211.684C1085.23 224.908 1100.27 231.626 1119.89 231.626C1132.58 231.626 1143.35 228.747 1152.31 222.882C1161.27 217.016 1167.99 208.592 1172.68 197.394L1198.28 204.966C1191.24 221.602 1181 234.186 1167.67 242.93C1154.34 251.675 1138.34 255.941 1119.89 255.941C1101.44 255.941 1085.66 251.782 1072.54 243.464L1072.65 243.57Z" fill="#1A1A1A"/>
<path d="M1211.18 221.175H1240.72V250.715H1211.18V221.175Z" fill="#1A1A1A"/>
<path d="M230.386 133.836C179.197 143.22 166.08 157.937 157.229 212.644C156.482 217.336 149.764 217.336 149.017 212.644C140.166 157.937 127.049 143.22 75.8602 133.836C70.3148 132.876 70.3148 124.878 75.8602 123.811C127.049 114.427 140.166 99.7103 149.017 45.0029C149.764 40.3107 156.482 40.3107 157.229 45.0029C166.08 99.7103 179.197 114.427 230.386 123.811C235.931 124.771 235.931 132.769 230.386 133.836V133.836Z" fill="#1A1A1A"/>
<path d="M38.7487 181.078C23.0722 195.581 10.4883 212.537 1.31707 231.306C-2.842 239.944 3.34328 249.969 12.9411 249.969C17.9533 249.969 22.4323 247.089 24.5652 242.611C36.8291 217.763 56.0248 196.968 79.5928 182.678C83.5386 180.332 85.8848 176.173 85.8848 171.587C85.8848 161.456 74.9006 155.164 66.3691 160.39C56.558 166.255 47.2801 173.187 38.642 181.185L38.7487 181.078Z" fill="#1A1A1A"/>
<path d="M267.497 181.078C258.752 172.973 249.261 165.935 239.13 159.963C230.492 154.844 219.508 161.029 219.508 171.054C219.508 175.639 221.961 179.905 225.906 182.251C249.794 196.541 269.31 217.443 281.574 242.61C283.707 247.089 288.186 249.969 293.198 249.969C302.796 249.969 309.088 239.944 304.822 231.306C295.651 212.644 283.067 195.581 267.39 181.078H267.497Z" fill="#1A1A1A"/>
</svg>
