<svg width="1241" height="257" viewBox="0 0 1241 257" fill="none" xmlns="http://www.w3.org/2000/svg">
<path d="M407.199 240.418C392.802 230.074 384.057 215.464 380.965 196.695L423.515 190.083C425.541 199.468 430.447 206.72 437.912 211.945C445.484 217.17 454.975 219.837 466.386 219.837C476.303 219.837 483.982 217.81 489.527 213.865C495.073 209.919 497.845 204.48 497.845 197.548C497.845 193.069 496.779 189.55 494.646 187.204C492.513 184.751 488.247 182.405 481.956 180.059C475.664 177.713 465.106 174.514 450.283 170.675C434.5 166.516 422.022 162.037 412.851 157.238C403.68 152.439 397.068 146.787 393.015 140.282C388.963 133.776 386.937 125.778 386.937 116.287C386.937 104.77 389.923 94.6388 396.001 86.0008C402.08 77.3628 410.612 70.6444 421.809 65.9521C432.9 61.2599 445.804 58.8071 460.414 58.8071C475.024 58.8071 487.714 61.0466 499.018 65.5256C510.323 70.0045 519.494 76.5097 526.426 84.8278C533.357 93.1458 537.623 102.957 539.116 113.941L496.566 121.513C495.393 113.514 491.767 107.223 485.581 102.637C479.396 98.0514 471.291 95.492 461.054 94.8521C451.242 94.4255 443.351 95.9185 437.379 99.4377C431.407 102.957 428.421 107.862 428.421 114.048C428.421 117.887 429.701 120.979 432.153 123.432C434.606 125.885 439.405 128.338 446.443 130.79C453.482 133.243 464.466 136.442 479.503 140.175C494.646 144.121 506.59 148.493 515.441 153.292C524.293 158.091 530.691 163.956 534.637 170.675C538.583 177.393 540.609 185.711 540.609 195.522C540.609 207.999 537.516 218.77 531.331 227.728C525.146 236.793 516.294 243.724 504.67 248.63C493.046 253.535 479.289 255.881 463.4 255.881C440.365 255.881 421.596 250.656 407.199 240.312V240.418Z" fill="#FBFBFB"/>
<path d="M587.958 243.191C574.947 234.553 564.923 222.822 557.991 207.893C550.953 192.963 547.434 176.113 547.434 157.451C547.434 138.789 550.953 121.619 558.204 106.689C565.35 91.7594 575.481 80.0288 588.598 71.6041C601.715 63.1794 616.965 58.9137 634.241 58.9137C651.517 58.9137 667.727 63.7126 680.737 73.3103V1.86023H722.754V250.976H685.856V237.112C671.886 249.803 654.183 256.095 632.535 256.095C615.685 256.095 600.755 251.829 587.851 243.191H587.958ZM596.809 189.017C600.328 198.295 605.661 205.546 612.699 210.772C619.844 216.104 628.589 218.77 639.04 218.77C655.036 218.77 666.873 213.331 674.552 202.454C682.123 191.576 685.963 176.646 685.963 157.557C685.963 138.469 682.23 123.539 674.765 112.661C667.3 101.784 655.889 96.345 640.533 96.345C629.655 96.345 620.59 99.0111 613.339 104.343C605.98 109.675 600.542 117.034 597.022 126.205C593.503 135.376 591.69 145.827 591.69 157.557C591.69 169.288 593.503 179.846 597.022 189.017H596.809Z" fill="#FBFBFB"/>
<path d="M802.418 0.0473633H827.799V28.6274H802.418V0.0473633ZM802.418 64.0325H827.799V250.869H802.418V64.0325Z" fill="#FBFBFB"/>
<path d="M980.723 103.064C971.978 90.0532 958.328 83.6547 939.772 83.6547C921.216 83.6547 908.312 89.6267 898.821 101.464C889.223 113.301 884.424 129.937 884.424 151.266V250.869H858.83V64.0326H881.865V89.9466C888.797 79.9222 897.648 72.3507 908.312 67.1252C918.977 61.8997 931.134 59.3403 944.678 59.3403C962.274 59.3403 976.777 63.606 987.868 72.1374C999.065 80.6687 1007.17 91.6528 1012.08 105.09C1016.98 118.527 1019.54 132.817 1019.54 148.066V250.763H993.946V155.425C993.946 133.35 989.574 115.861 980.829 102.957L980.723 103.064Z" fill="#FBFBFB"/>
<path d="M1072.65 243.618C1059.53 235.3 1049.62 223.676 1042.68 208.852C1035.75 194.029 1032.23 176.86 1032.02 157.451C1032.23 137.722 1035.86 120.446 1042.79 105.623C1049.72 90.7997 1059.75 79.2824 1072.86 71.071C1085.98 62.8595 1101.76 58.8071 1120.11 58.8071C1132.58 58.8071 1144.1 60.8333 1154.66 64.9924C1165.22 69.1514 1174.28 75.1233 1181.85 82.9082C1189.32 90.6931 1194.86 99.8643 1198.28 110.528L1173.43 118.527C1169.06 107.436 1162.12 98.7979 1152.53 92.6126C1143.03 86.4274 1132.16 83.2281 1119.89 83.2281C1099.95 83.2281 1084.91 89.9466 1074.68 103.277C1064.44 116.607 1059.21 134.736 1059 157.451C1059.21 180.379 1064.55 198.508 1074.89 211.732C1085.23 224.955 1100.27 231.674 1119.89 231.674C1132.58 231.674 1143.35 228.794 1152.31 222.929C1161.27 217.064 1167.99 208.639 1172.68 197.442L1198.28 205.013C1191.24 221.649 1181 234.233 1167.67 242.978C1154.34 251.722 1138.34 255.988 1119.89 255.988C1101.44 255.988 1085.66 251.829 1072.54 243.511L1072.65 243.618Z" fill="#FBFBFB"/>
<path d="M1211.18 221.223H1240.72V250.763H1211.18V221.223Z" fill="#FBFBFB"/>
<path d="M230.386 133.883C179.197 143.268 166.08 157.984 157.229 212.691C156.482 217.384 149.764 217.384 149.017 212.691C140.166 157.984 127.049 143.268 75.8602 133.883C70.3148 132.923 70.3148 124.925 75.8602 123.859C127.049 114.474 140.166 99.7576 149.017 45.0503C149.764 40.3581 156.482 40.3581 157.229 45.0503C166.08 99.7576 179.197 114.474 230.386 123.859C235.931 124.818 235.931 132.817 230.386 133.883Z" fill="#FBFBFB"/>
<path d="M38.7487 181.125C23.0722 195.629 10.4883 212.585 1.31707 231.354C-2.842 239.992 3.34328 250.016 12.9411 250.016C17.9533 250.016 22.4323 247.137 24.5652 242.658C36.8291 217.81 56.0248 197.015 79.5928 182.725C83.5386 180.379 85.8848 176.22 85.8848 171.634C85.8848 161.503 74.9006 155.211 66.3691 160.437C56.558 166.302 47.2801 173.234 38.642 181.232L38.7487 181.125Z" fill="#FBFBFB"/>
<path d="M267.497 181.125C258.752 173.021 249.261 165.982 239.13 160.01C230.492 154.891 219.508 161.077 219.508 171.101C219.508 175.687 221.961 179.952 225.906 182.298C249.794 196.588 269.31 217.49 281.574 242.658C283.707 247.137 288.186 250.016 293.198 250.016C302.796 250.016 309.088 239.992 304.822 231.354C295.651 212.691 283.067 195.629 267.39 181.125H267.497Z" fill="#FBFBFB"/>
</svg>
